# 3ds Max Wavefront OBJ Exporter v0.97b - (c)2007 guruware
# File Created: 18.12.2013 12:01:18

mtllib Wing_Main.mtl

#
# object Wing_Main_LP
#

v  1361.4510 -84.0656 32.7232
v  1361.4510 -13.2237 32.7232
v  1361.4510 0.1289 -33.9472
v  1361.4510 -84.0656 -43.0949
v  1373.0822 -84.0656 32.7232
v  1373.0822 -84.0656 -43.0949
v  1386.5963 -92.0084 -43.0949
v  1386.5963 -92.0084 32.7232
v  1373.0822 -10.6976 -47.9218
v  1380.2985 -25.9654 -54.0124
v  1383.4558 -66.8443 -62.2260
v  1373.0822 -77.2874 -57.0998
v  1373.0822 0.1289 -33.9472
v  1373.0822 -13.2237 32.7232
v  1386.5963 -21.3678 32.7232
v  1386.5963 -8.0151 -33.9472
v  1373.0822 -79.4507 53.3416
v  1387.5037 -75.5120 51.1557
v  1385.1199 -35.8402 50.7098
v  1373.0822 -26.3491 53.3416
v  1455.6689 -159.4218 -95.3025
v  1487.0885 -168.2020 -26.8621
v  1448.5199 -123.2716 -100.8131
v  1441.8705 -145.3830 -104.9206
v  1493.9928 -132.4059 -25.4394
v  1466.1870 -123.9028 -85.4408
v  1500.5917 -164.7463 -10.1669
v  1501.1333 -150.0829 -6.8028
v  1454.6583 -169.6699 -125.0478
v  1496.9561 -181.4836 -33.0649
v  1455.1447 -122.2089 -131.1140
v  1443.4589 -144.5956 -131.5570
v  1508.0751 -123.2768 -30.7019
v  1471.7930 -112.1745 -109.1296
v  1510.8191 -170.5090 -15.9240
v  1518.9063 -144.9685 -14.2329
v  1591.2524 -173.0762 -159.6686
v  1614.1610 -179.4830 -109.6476
v  1603.8138 -159.8354 -173.7723
v  1599.3650 -162.1591 -177.4120
v  1617.7677 -161.2209 -108.9608
v  1596.5940 -154.7514 -154.5454
v  1634.3585 -175.8459 -102.7674
v  1635.1628 -172.7781 -102.9916
v  1371.5043 -92.6431 -43.0949
v  1361.4510 -84.0656 113.0854
v  1360.9630 -87.7276 115.8586
v  1371.5043 -92.6432 113.0854
v  1373.0822 -84.0656 113.0854
v  1360.9630 -87.7276 -43.0949
v  1355.1595 -93.0864 131.0154
v  1363.3839 -101.3108 131.0154
v  1363.3839 -101.3108 -43.0949
v  1355.1595 -93.0864 -43.0949
v  1341.5306 -101.9366 131.0154
v  1347.3462 -112.0094 131.0154
v  1347.3462 -112.0094 -43.0949
v  1341.5306 -101.9366 -43.0949
v  1341.5306 -101.9366 144.0547
v  1320.5304 -111.0963 157.1836
v  1325.4459 -121.6376 157.1836
v  1347.3462 -112.0094 144.0547
v  1325.4459 -121.6376 -43.0949
v  1320.5304 -111.0962 -43.0949
v  1293.2802 -114.9232 171.9598
v  1296.2905 -126.1580 171.9598
v  1296.2905 -126.1580 -43.0948
v  1293.2802 -114.9232 -43.0948
v  1293.2802 -114.9232 189.5600
v  1263.6116 -116.1454 206.9399
v  1263.6116 -127.7765 206.9399
v  1296.2905 -126.1580 189.5600
v  1263.6116 -127.7765 -43.0949
v  1263.6116 -116.1454 -43.0949
v  1221.7515 -116.1455 240.6746
v  1221.7515 -127.7766 240.6746
v  1221.7515 -127.7766 -43.0949
v  1221.7515 -116.1454 -43.0949
v  1082.0520 -84.0656 32.7232
v  1082.0520 -84.0656 -43.0948
v  1082.0520 0.1289 -33.9472
v  1082.0520 -13.2237 32.7232
v  1070.4209 -84.0656 32.7232
v  1056.9067 -92.0084 32.7232
v  1056.9067 -92.0084 -43.0948
v  1070.4209 -84.0656 -43.0948
v  1070.4209 -10.6976 -47.9218
v  1070.4209 -77.2874 -57.0998
v  1060.0471 -66.8443 -62.2260
v  1063.2046 -25.9654 -54.0124
v  1070.4209 0.1289 -33.9472
v  1056.9067 -8.0151 -33.9472
v  1056.9067 -21.3678 32.7232
v  1070.4209 -13.2237 32.7232
v  1070.4209 -79.4507 53.3416
v  1070.4209 -26.3491 53.3416
v  1058.3831 -35.8402 50.7098
v  1055.9994 -75.5120 51.1557
v  956.4146 -168.2020 -26.8620
v  987.8341 -159.4218 -95.3025
v  1001.6325 -145.3830 -104.9206
v  994.9832 -123.2716 -100.8131
v  977.3160 -123.9028 -85.4407
v  949.5103 -132.4059 -25.4394
v  942.3696 -150.0829 -6.8027
v  942.9114 -164.7463 -10.1668
v  946.5470 -181.4835 -33.0649
v  988.8447 -169.6699 -125.0478
v  1000.0442 -144.5955 -131.5570
v  988.3584 -122.2089 -131.1140
v  971.7101 -112.1745 -109.1296
v  935.4280 -123.2768 -30.7018
v  924.5968 -144.9684 -14.2329
v  932.6838 -170.5090 -15.9239
v  829.3420 -179.4829 -109.6476
v  852.2506 -173.0762 -159.6686
v  844.1381 -162.1590 -177.4119
v  839.6892 -159.8354 -173.7722
v  846.9091 -154.7513 -154.5453
v  825.7353 -161.2208 -108.9608
v  808.3403 -172.7781 -102.9916
v  809.1445 -175.8459 -102.7674
v  1071.9988 -92.6431 -43.0949
v  1082.0520 -84.0656 113.0854
v  1070.4209 -84.0656 113.0854
v  1071.9988 -92.6431 113.0854
v  1082.5400 -87.7276 115.8587
v  1082.5400 -87.7276 -43.0949
v  1080.1191 -101.3108 131.0154
v  1088.3435 -93.0864 131.0154
v  1088.3435 -93.0864 -43.0949
v  1080.1191 -101.3108 -43.0949
v  1096.1569 -112.0094 131.0154
v  1101.9724 -101.9366 131.0154
v  1101.9724 -101.9366 -43.0949
v  1096.1567 -112.0094 -43.0949
v  1101.9724 -101.9366 144.0547
v  1096.1569 -112.0094 144.0547
v  1118.0571 -121.6376 157.1836
v  1122.9727 -111.0962 157.1836
v  1122.9727 -111.0962 -43.0949
v  1118.0571 -121.6376 -43.0949
v  1147.2125 -126.1580 171.9599
v  1150.2229 -114.9232 171.9599
v  1150.2229 -114.9232 -43.0948
v  1147.2125 -126.1580 -43.0948
v  1150.2229 -114.9232 189.5600
v  1147.2125 -126.1580 189.5600
v  1179.8915 -127.7765 206.9399
v  1179.8915 -116.1454 206.9399
v  1179.8915 -116.1454 -43.0949
v  1179.8915 -127.7765 -43.0949
# 152 vertices

vn -0.8797 0.3729 0.2950
vn -0.5885 0.5125 0.6253
vn -0.5728 0.6612 -0.4845
vn -0.6766 0.0845 -0.7315
vn 0.0411 -0.6842 0.7282
vn -0.1479 -0.5367 -0.8307
vn -0.6758 -0.6988 -0.2345
vn -0.3655 -0.8586 0.3595
vn -0.4619 0.5498 -0.6960
vn -0.0006 0.4162 -0.9093
vn -0.5282 -0.0848 -0.8449
vn -0.4566 -0.6245 -0.6337
vn 0.1139 0.9089 -0.4011
vn 0.1023 0.7991 0.5924
vn 0.6092 0.7028 0.3673
vn 0.6137 0.7562 -0.2271
vn -0.5367 -0.4389 0.7207
vn 0.2753 -0.2840 0.9185
vn 0.5100 0.3289 0.7948
vn -0.3933 0.5339 0.7485
vn -0.7220 -0.6786 0.1349
vn -0.5495 -0.7498 0.3686
vn -0.3456 0.7701 -0.5362
vn -0.8875 -0.4064 -0.2171
vn 0.3462 0.8451 0.4074
vn 0.1024 0.9947 -0.0031
vn 0.0230 -0.5734 0.8190
vn 0.4484 0.1494 0.8813
vn -0.5851 -0.7349 -0.3429
vn -0.2599 -0.9172 0.3021
vn -0.4481 0.6685 -0.5936
vn -0.8203 -0.0696 -0.5677
vn 0.0899 0.8877 0.4515
vn -0.0781 0.9944 -0.0714
vn 0.2869 -0.6230 0.7277
vn 0.4445 0.3233 0.8354
vn 0.0718 -0.9269 -0.3685
vn 0.1221 -0.9918 -0.0366
vn 0.7225 0.3340 -0.6053
vn 0.2557 -0.1193 -0.9594
vn 0.4715 0.8804 0.0508
vn 0.3145 0.9430 -0.1089
vn 0.7380 -0.6385 0.2184
vn 0.9472 0.2528 0.1970
vn 0.6793 -0.3428 -0.6489
vn -0.5106 0.7261 0.4606
vn -0.2010 0.8642 0.4612
vn 0.8809 -0.2172 0.4204
vn 0.6322 0.5265 0.5684
vn -0.5418 0.2813 -0.7921
vn -0.0570 0.7258 0.6855
vn 0.6965 -0.2196 0.6831
vn 0.4728 -0.5577 -0.6822
vn -0.4216 0.5424 -0.7267
vn -0.1419 0.9412 0.3066
vn 0.6852 -0.6658 0.2952
vn 0.3487 -0.6364 -0.6881
vn -0.3258 0.6055 -0.7261
vn 0.3401 0.8506 0.4009
vn 0.1621 0.7669 0.6210
vn 0.4965 -0.5925 0.6343
vn 0.8828 -0.2372 0.4054
vn 0.2057 -0.7047 -0.6790
vn -0.1832 0.6484 -0.7389
vn 0.3593 0.9013 0.2420
vn 0.5556 -0.7695 0.3148
vn 0.0729 -0.7148 -0.6956
vn -0.0628 0.6929 -0.7183
vn 0.5893 0.7002 0.4030
vn 0.3856 0.7229 0.5734
vn 0.3966 -0.7259 0.5619
vn 0.7626 -0.4997 0.4107
vn 0.0176 -0.7124 -0.7016
vn -0.0145 0.7023 -0.7118
vn 0.0000 0.5895 0.8078
vn -0.0000 -0.5895 0.8078
vn -0.0000 -0.7071 -0.7071
vn -0.0000 0.7071 -0.7071
vn 0.8797 0.3729 0.2950
vn 0.6766 0.0845 -0.7315
vn 0.5728 0.6612 -0.4845
vn 0.5885 0.5125 0.6253
vn -0.0411 -0.6842 0.7282
vn 0.3655 -0.8586 0.3595
vn 0.6758 -0.6988 -0.2345
vn 0.1479 -0.5367 -0.8307
vn 0.4619 0.5498 -0.6960
vn 0.4566 -0.6245 -0.6337
vn 0.5282 -0.0848 -0.8449
vn 0.0006 0.4162 -0.9093
vn -0.1139 0.9089 -0.4011
vn -0.6137 0.7562 -0.2271
vn -0.6092 0.7028 0.3673
vn -0.1023 0.7991 0.5924
vn 0.5367 -0.4389 0.7207
vn 0.3933 0.5339 0.7485
vn -0.5100 0.3289 0.7948
vn -0.2753 -0.2840 0.9185
vn 0.5495 -0.7498 0.3686
vn 0.7220 -0.6786 0.1349
vn 0.8875 -0.4064 -0.2171
vn 0.3456 0.7701 -0.5362
vn -0.1024 0.9947 -0.0031
vn -0.3462 0.8451 0.4074
vn -0.4484 0.1494 0.8813
vn -0.0230 -0.5734 0.8190
vn 0.2599 -0.9172 0.3021
vn 0.5851 -0.7349 -0.3429
vn 0.8203 -0.0696 -0.5677
vn 0.4481 0.6685 -0.5936
vn 0.0781 0.9944 -0.0714
vn -0.0899 0.8877 0.4515
vn -0.4445 0.3233 0.8354
vn -0.2869 -0.6230 0.7277
vn -0.1221 -0.9918 -0.0366
vn -0.0718 -0.9269 -0.3685
vn -0.2557 -0.1193 -0.9594
vn -0.7225 0.3340 -0.6053
vn -0.3145 0.9430 -0.1089
vn -0.4715 0.8804 0.0508
vn -0.9472 0.2528 0.1970
vn -0.7380 -0.6385 0.2184
vn -0.6793 -0.3428 -0.6489
vn 0.5106 0.7261 0.4606
vn -0.6322 0.5265 0.5684
vn -0.8809 -0.2172 0.4204
vn 0.2010 0.8642 0.4612
vn 0.5418 0.2813 -0.7921
vn -0.6965 -0.2196 0.6831
vn 0.0570 0.7258 0.6855
vn 0.4216 0.5424 -0.7267
vn -0.4728 -0.5577 -0.6822
vn -0.6852 -0.6658 0.2952
vn 0.1419 0.9412 0.3066
vn 0.3258 0.6055 -0.7261
vn -0.3487 -0.6364 -0.6881
vn -0.3401 0.8506 0.4009
vn -0.8828 -0.2372 0.4054
vn -0.4965 -0.5925 0.6343
vn -0.1621 0.7669 0.6210
vn 0.1832 0.6484 -0.7389
vn -0.2057 -0.7047 -0.6790
vn -0.5556 -0.7695 0.3148
vn -0.3593 0.9013 0.2420
vn 0.0628 0.6929 -0.7183
vn -0.0729 -0.7148 -0.6956
vn -0.5893 0.7002 0.4030
vn -0.7626 -0.4997 0.4107
vn -0.3966 -0.7259 0.5619
vn -0.3856 0.7229 0.5734
vn 0.0145 0.7023 -0.7118
vn -0.0176 -0.7124 -0.7016
# 152 vertex normals

vt 0.8080 0.8387 0.0000
vt 0.9164 0.8271 0.0000
vt 0.9494 0.9232 0.0000
vt 0.8234 0.9569 0.0000
vt 0.8158 0.7723 0.0000
vt 0.9377 0.7177 0.0000
vt 0.9258 0.6949 0.0000
vt 0.8039 0.7494 0.0000
vt 0.1101 0.3137 0.0000
vt 0.1432 0.3260 0.0000
vt 0.2048 0.3799 0.0000
vt 0.1945 0.4072 0.0000
vt 0.0802 0.2992 0.0000
vt 0.0447 0.1591 0.0000
vt 0.0830 0.1622 0.0000
vt 0.1106 0.2845 0.0000
vt 0.1228 0.0450 0.0000
vt 0.1408 0.0644 0.0000
vt 0.0938 0.1242 0.0000
vt 0.0717 0.1296 0.0000
vt 0.9409 0.5376 0.0000
vt 0.8064 0.5349 0.0000
vt 0.3938 0.3502 0.0000
vt 0.4093 0.4055 0.0000
vt 0.4072 0.1541 0.0000
vt 0.4021 0.2925 0.0000
vt 0.4414 0.0687 0.0000
vt 0.4238 0.0970 0.0000
vt 0.9862 0.5167 0.0000
vt 0.8054 0.5129 0.0000
vt 0.4521 0.3626 0.0000
vt 0.4533 0.3971 0.0000
vt 0.4406 0.1613 0.0000
vt 0.4470 0.3199 0.0000
vt 0.4637 0.0665 0.0000
vt 0.4560 0.1141 0.0000
vt 0.9463 0.2699 0.0000
vt 0.8481 0.2680 0.0000
vt 0.7511 0.3000 0.0000
vt 0.7543 0.3087 0.0000
vt 0.7113 0.1791 0.0000
vt 0.7171 0.2762 0.0000
vt 0.7447 0.1462 0.0000
vt 0.7411 0.1493 0.0000
vt 0.0911 0.0219 0.0000
vt 0.1716 0.0289 0.0000
vt 0.1474 0.0159 0.0000
vt 0.4400 0.0257 0.0000
vt 0.4733 0.0212 0.0000
vt 0.7309 0.1069 0.0000
vt 0.7859 0.2788 0.0000
vt 0.7781 0.1718 0.0000
vt 0.4798 0.4372 0.0000
vt 0.7425 0.3498 0.0000
vt 0.4236 0.4489 0.0000
vt 0.2193 0.4399 0.0000
vt 0.1928 0.4332 0.0000
vt 0.1796 0.4331 0.0000
vt 0.9242 0.8165 0.0000
vt 0.8081 0.8202 0.0000
vt 0.9599 0.9278 0.0000
vt 0.8300 0.9742 0.0000
vt 0.0255 0.9870 0.0000
vt 0.0208 0.8681 0.0000
vt 0.0392 0.9865 0.0000
vt 0.6660 0.7108 0.0000
vt 0.6624 0.7049 0.0000
vt 0.6824 0.6984 0.0000
vt 0.6847 0.7113 0.0000
vt 0.6625 0.8444 0.0000
vt 0.6578 0.9693 0.0000
vt 0.6521 0.9710 0.0000
vt 0.6710 0.9821 0.0000
vt 0.6589 0.9895 0.0000
vt 0.6482 0.6812 0.0000
vt 0.6613 0.6695 0.0000
vt 0.6399 0.9898 0.0000
vt 0.6383 0.9703 0.0000
vt 0.6207 0.6755 0.0000
vt 0.6346 0.6591 0.0000
vt 0.6096 0.9872 0.0000
vt 0.6101 0.9678 0.0000
vt 0.6140 0.6558 0.0000
vt 0.5807 0.6304 0.0000
vt 0.5934 0.6161 0.0000
vt 0.6269 0.6438 0.0000
vt 0.5724 0.9847 0.0000
vt 0.5705 0.9653 0.0000
vt 0.5334 0.6029 0.0000
vt 0.5498 0.5915 0.0000
vt 0.5256 0.9820 0.0000
vt 0.5233 0.9628 0.0000
vt 0.5284 0.5742 0.0000
vt 0.4828 0.5430 0.0000
vt 0.4942 0.5270 0.0000
vt 0.5433 0.5649 0.0000
vt 0.4721 0.9805 0.0000
vt 0.4732 0.9611 0.0000
vt 0.4133 0.4853 0.0000
vt 0.4254 0.4703 0.0000
vt 0.4025 0.9789 0.0000
vt 0.4031 0.9595 0.0000
vt 0.6819 0.8453 0.0000
vt 0.2232 0.9793 0.0000
vt 0.2077 0.5871 0.0000
vt 0.2713 0.5316 0.0000
vt 0.2888 0.9767 0.0000
vt 0.1719 0.9813 0.0000
vt 0.1586 0.6440 0.0000
vt 0.1256 0.9831 0.0000
vt 0.1132 0.6690 0.0000
vt 0.0881 0.9846 0.0000
vt 0.0773 0.7115 0.0000
vt 0.0578 0.9858 0.0000
vt 0.0471 0.7127 0.0000
vt 0.0296 0.7416 0.0000
vt 0.0159 0.7421 0.0000
vt 0.0765 0.6911 0.0000
vt 0.1575 0.6164 0.0000
# 119 texture coords

g Wing_Main_LP
usemtl wire_088177027
s 1
f 1/1/1 2/2/2 3/3/3 4/4/4 
f 5/5/5 6/6/6 7/7/7 8/8/8 
f 9/9/9 10/10/10 11/11/11 12/12/12 
f 13/13/13 14/14/14 15/15/15 16/16/16 
f 17/17/17 18/18/18 19/19/19 20/20/20 
f 8/8/8 7/7/7 21/21/21 22/22/22 
f 10/10/10 23/23/23 24/24/24 11/11/11 
f 16/16/16 15/15/15 25/25/25 26/26/26 
f 18/18/18 27/27/27 28/28/28 19/19/19 
f 22/22/22 21/21/21 29/29/29 30/30/30 
f 23/23/23 31/31/31 32/32/32 24/24/24 
f 26/26/26 25/25/25 33/33/33 34/34/34 
f 27/27/27 35/35/35 36/36/36 28/28/28 
f 30/30/30 29/29/29 37/37/37 38/38/38 
f 31/31/31 39/39/39 40/40/40 32/32/32 
f 34/34/34 33/33/33 41/41/41 42/42/42 
f 35/35/35 43/43/43 44/44/44 36/36/36 
f 5/45/5 17/17/17 20/20/20 14/14/14 
f 8/46/8 18/18/18 17/17/17 5/47/5 
f 22/48/22 27/27/27 18/18/18 8/46/8 
f 30/49/30 35/35/35 27/27/27 22/48/22 
f 38/50/38 43/43/43 35/35/35 30/49/30 
f 37/51/37 40/40/40 43/43/43 38/52/38 
f 29/53/29 32/32/32 40/40/40 37/54/37 
f 21/55/21 24/24/24 32/32/32 29/53/29 
f 7/56/7 11/11/11 24/24/24 21/55/21 
f 6/57/6 12/12/12 11/11/11 7/56/7 
f 13/13/13 9/9/9 12/12/12 6/58/6 
f 16/16/16 10/10/10 9/9/9 13/13/13 
f 26/26/26 23/23/23 10/10/10 16/16/16 
f 34/34/34 31/31/31 23/23/23 26/26/26 
f 42/42/42 39/39/39 31/31/31 34/34/34 
f 41/41/41 44/44/44 39/39/39 42/42/42 
f 33/33/33 36/36/36 44/44/44 41/41/41 
f 25/25/25 28/28/28 36/36/36 33/33/33 
f 15/15/15 19/19/19 28/28/28 25/25/25 
f 14/14/14 20/20/20 19/19/19 15/15/15 
f 14/59/14 2/2/2 1/1/1 5/60/5 
f 13/61/13 3/3/3 2/2/2 14/59/14 
f 13/61/13 6/62/6 4/4/4 3/3/3 
f 6/63/6 5/64/5 45/65/45 
f 46/66/46 47/67/47 48/68/48 49/69/49 
f 1/70/1 4/71/4 50/72/50 
f 6/73/6 45/74/45 50/72/50 4/71/4 
f 47/67/47 51/75/51 52/76/52 48/68/48 
f 45/74/45 53/77/53 54/78/54 50/72/50 
f 51/75/51 55/79/55 56/80/56 52/76/52 
f 53/77/53 57/81/57 58/82/58 54/78/54 
f 59/83/59 60/84/60 61/85/61 62/86/62 
f 57/81/57 63/87/63 64/88/64 58/82/58 
f 60/84/60 65/89/65 66/90/66 61/85/61 
f 63/87/63 67/91/67 68/92/68 64/88/64 
f 69/93/69 70/94/70 71/95/71 72/96/72 
f 67/91/67 73/97/73 74/98/74 68/92/68 
f 70/94/70 75/99/75 76/100/76 71/95/71 
f 73/97/73 77/101/77 78/102/78 74/98/74 
f 1/70/1 46/66/46 49/69/49 5/103/5 
f 50/72/50 47/67/47 46/66/46 1/70/1 
f 54/78/54 51/75/51 47/67/47 50/72/50 
f 58/82/58 55/79/55 51/75/51 54/78/54 
f 64/88/64 60/84/60 55/79/55 58/82/58 
f 68/92/68 65/89/65 60/84/60 64/88/64 
f 74/98/74 70/94/70 65/89/65 68/92/68 
f 74/98/74 78/102/78 75/99/75 70/94/70 
f 73/104/73 71/105/71 76/106/76 77/107/77 
f 67/108/67 66/109/66 71/105/71 73/104/73 
f 63/110/63 61/111/61 66/109/66 67/108/67 
f 57/112/57 56/113/56 61/111/61 63/110/63 
f 53/114/53 52/115/52 56/113/56 57/112/57 
f 45/65/45 48/116/48 52/115/52 53/114/53 
f 5/64/5 49/117/49 48/116/48 45/65/45 
f 55/79/55 59/83/59 62/86/62 56/80/56 
f 55/79/55 60/84/60 59/83/59 
f 61/111/61 56/113/56 62/118/62 
f 65/89/65 69/93/69 72/96/72 66/90/66 
f 65/89/65 70/94/70 69/93/69 
f 71/105/71 66/109/66 72/119/72 
f 40/40/40 39/39/39 44/44/44 43/43/43 
f 79/1/79 80/4/80 81/3/81 82/2/82 
f 83/5/83 84/8/84 85/7/85 86/6/86 
f 87/9/87 88/12/88 89/11/89 90/10/90 
f 91/13/91 92/16/92 93/15/93 94/14/94 
f 95/17/95 96/20/96 97/19/97 98/18/98 
f 84/8/84 99/22/99 100/21/100 85/7/85 
f 90/10/90 89/11/89 101/24/101 102/23/102 
f 92/16/92 103/26/103 104/25/104 93/15/93 
f 98/18/98 97/19/97 105/28/105 106/27/106 
f 99/22/99 107/30/107 108/29/108 100/21/100 
f 102/23/102 101/24/101 109/32/109 110/31/110 
f 103/26/103 111/34/111 112/33/112 104/25/104 
f 106/27/106 105/28/105 113/36/113 114/35/114 
f 107/30/107 115/38/115 116/37/116 108/29/108 
f 110/31/110 109/32/109 117/40/117 118/39/118 
f 111/34/111 119/42/119 120/41/120 112/33/112 
f 114/35/114 113/36/113 121/44/121 122/43/122 
f 83/45/83 94/14/94 96/20/96 95/17/95 
f 84/46/84 83/47/83 95/17/95 98/18/98 
f 99/48/99 84/46/84 98/18/98 106/27/106 
f 107/49/107 99/48/99 106/27/106 114/35/114 
f 115/50/115 107/49/107 114/35/114 122/43/122 
f 116/51/116 115/52/115 122/43/122 117/40/117 
f 108/53/108 116/54/116 117/40/117 109/32/109 
f 100/55/100 108/53/108 109/32/109 101/24/101 
f 85/56/85 100/55/100 101/24/101 89/11/89 
f 86/57/86 85/56/85 89/11/89 88/12/88 
f 91/13/91 86/58/86 88/12/88 87/9/87 
f 92/16/92 91/13/91 87/9/87 90/10/90 
f 103/26/103 92/16/92 90/10/90 102/23/102 
f 111/34/111 103/26/103 102/23/102 110/31/110 
f 119/42/119 111/34/111 110/31/110 118/39/118 
f 120/41/120 119/42/119 118/39/118 121/44/121 
f 112/33/112 120/41/120 121/44/121 113/36/113 
f 104/25/104 112/33/112 113/36/113 105/28/105 
f 93/15/93 104/25/104 105/28/105 97/19/97 
f 94/14/94 93/15/93 97/19/97 96/20/96 
f 94/59/94 83/60/83 79/1/79 82/2/82 
f 91/61/91 94/59/94 82/2/82 81/3/81 
f 91/61/91 81/3/81 80/4/80 86/62/86 
f 86/63/86 123/65/123 83/64/83 
f 124/66/124 125/69/125 126/68/126 127/67/127 
f 79/70/79 128/72/128 80/71/80 
f 86/73/86 80/71/80 128/72/128 123/74/123 
f 127/67/127 126/68/126 129/76/129 130/75/130 
f 123/74/123 128/72/128 131/78/131 132/77/132 
f 130/75/130 129/76/129 133/80/133 134/79/134 
f 132/77/132 131/78/131 135/82/135 136/81/136 
f 137/83/137 138/86/138 139/85/139 140/84/140 
f 136/81/136 135/82/135 141/88/141 142/87/142 
f 140/84/140 139/85/139 143/90/143 144/89/144 
f 142/87/142 141/88/141 145/92/145 146/91/146 
f 147/93/147 148/96/148 149/95/149 150/94/150 
f 146/91/146 145/92/145 151/98/151 152/97/152 
f 150/94/150 149/95/149 76/100/76 75/99/75 
f 152/97/152 151/98/151 78/102/78 77/101/77 
f 79/70/79 83/103/83 125/69/125 124/66/124 
f 128/72/128 79/70/79 124/66/124 127/67/127 
f 131/78/131 128/72/128 127/67/127 130/75/130 
f 135/82/135 131/78/131 130/75/130 134/79/134 
f 141/88/141 135/82/135 134/79/134 140/84/140 
f 145/92/145 141/88/141 140/84/140 144/89/144 
f 151/98/151 145/92/145 144/89/144 150/94/150 
f 151/98/151 150/94/150 75/99/75 78/102/78 
f 152/104/152 77/107/77 76/106/76 149/105/149 
f 146/108/146 152/104/152 149/105/149 143/109/143 
f 142/110/142 146/108/146 143/109/143 139/111/139 
f 136/112/136 142/110/142 139/111/139 133/113/133 
f 132/114/132 136/112/136 133/113/133 129/115/129 
f 123/65/123 132/114/132 129/115/129 126/116/126 
f 83/64/83 123/65/123 126/116/126 125/117/125 
f 134/79/134 133/80/133 138/86/138 137/83/137 
f 134/79/134 137/83/137 140/84/140 
f 139/111/139 138/118/138 133/113/133 
f 144/89/144 143/90/143 148/96/148 147/93/147 
f 144/89/144 147/93/147 150/94/150 
f 149/105/149 148/119/148 143/109/143 
f 117/40/117 122/43/122 121/44/121 118/39/118 
# 144 polygons - 12 triangles

#
# object poi_wingToBody
#

v  1357.7953 -43.2844 5.3844
v  1367.7953 -43.2844 5.3844
v  1367.7953 -43.2844 15.3844
v  1357.7953 -43.2844 15.3844
v  1357.7953 -33.2844 5.3844
v  1357.7953 -33.2844 15.3844
v  1367.7953 -33.2844 15.3844
v  1367.7953 -33.2844 5.3844
# 8 vertices

vn 0.0000 -1.0000 -0.0000
vn 0.0000 1.0000 -0.0000
vn -1.0000 0.0000 -0.0000
vn -0.0000 0.0000 1.0000
vn 1.0000 0.0000 0.0000
vn 0.0000 0.0000 -1.0000
# 6 vertex normals

vt 1.0000 0.0000 0.0000
vt 1.0000 1.0000 0.0000
vt 0.0000 1.0000 0.0000
vt 0.0000 0.0000 0.0000
# 4 texture coords

g poi_wingToBody
usemtl wire_086086086
s 2
f 153/120/153 154/121/153 155/122/153 156/123/153 
s 4
f 157/123/154 158/120/154 159/121/154 160/122/154 
s 8
f 153/123/155 156/120/155 158/121/155 157/122/155 
s 16
f 156/123/156 155/120/156 159/121/156 158/122/156 
s 32
f 155/123/157 154/120/157 160/121/157 159/122/157 
s 64
f 154/123/158 153/120/158 157/121/158 160/122/158 
# 6 polygons

